<svg version="1.1" id="logoCaleres" xmlns="http://www.w3.org/2000/svg" xmlns:xlink="http://www.w3.org/1999/xlink" x="0px" y="0px" viewBox="0 0 162.6 42.9" xml:space="preserve">
	<path d="M82,35c-1.2,0-2.3,0.4-3.2,1.1v-2.9h5.6l0.6-2.1h-7.4v6.7c0.9-0.7,2.1-1.2,3.1-1.2c1.5,0,2.4,1,2.4,2.7,c0,1.5-0.8,2.5-2,2.5c-0.8,0-1.1-0.3-1.1-0.7c0-0.3,0.1-0.5,0.1-0.9c0-0.7-0.6-1.4-1.4-1.4c-0.9,0-1.4,0.7-1.4,1.5, c0,1.4,1.3,2.5,3.6,2.5c2.9,0,4.6-1.9,4.6-4.5C85.4,36.1,84,35,82,35z"></path>
	<polygon points="97.1,34.6 96,30.8 94.9,34.6 91,34.5 94.3,36.7 92.9,40.4 96,38 99.1,40.4 97.8,36.7 101.1,34.5"></polygon>
	<polygon points="67.7,34.6 66.6,30.8 65.5,34.6 61.6,34.5 64.9,36.7 63.5,40.4 66.6,38 69.7,40.4 68.4,36.7,71.7,34.5"></polygon>
	<path d="M32.7,0l-8.9,20.5l-3.2,2.3h7.6l-2.5-2.2l1.5-3.5h8.6l1.5,3.6L35,22.8h9.8l-3.3-2.6L32.7,0z M28.1,15.2
		l3.5-8.1l3.4,8.1H28.1z"></path>
	<path d="M111.2,17l-2.9-4.1c3.3-0.6,6.4-2.9,6.4-6.3c0-3.2-2.7-5.6-9.2-5.6H95.1l3.5,2.9v16l-3.5,2.9h10.5,l-3.1-2.9v-6.8h1.2l4.3,5.6c2.4,3.1,5.1,4.4,7.4,4.4c0.7,0,1.5-0.1,2.2-0.4C115.5,22.2,113.9,20.9,111.2,17z M104.4,11.8h-1.9V2.4,h1.3c4.6,0,6.8,2.5,6.8,5C110.6,10.1,108.5,11.8,104.4,11.8z"></path>
	<polygon points="128,21.3 128,12.5 131.6,12.5 135.2,16.5 134.7,11.3 135.1,6.4 131.6,10.4 128,10.4 128,2.5, 134.9,2.5 140.4,7.7 139.2,1.1 120.6,1.1 124.1,3.9 124.1,20 120.6,22.8 139.2,22.8 141.1,16.2 134.9,21.3"></polygon>
	<polygon points="77.6,21.3 77.6,12.5 81.2,12.5 84.8,16.5 84.3,11.3 84.7,6.4 81.2,10.4 77.6,10.4 77.6,2.5,84.5,2.5 90,7.7 88.8,1.1 70.2,1.1 73.7,3.9 73.7,20 70.2,22.8 88.8,22.8 90.7,16.2 84.5,21.3"></polygon>
	<path d="M155.6,9.7c-2.7-1.1-5.2-2.1-5.2-4.5c0-1.7,1.5-3.1,3.7-3.1c2.4,0,4.5,1.6,6.8,6.4l1.3-7.5l-2,1.4,c-1.6-1.1-3.6-1.7-5.5-1.7c-4.6,0-7.7,2.9-7.7,6.6s3.3,5.2,6.5,6.5c5,2,5.9,3.4,5.9,5c0,2-1.8,2.9-3.9,2.9c-3.1,0-5.5-2-7.4-6.7,l-2.5,8.2l2.7-1.6c1.7,1,3.8,1.8,6.6,1.8c3.5,0,7.6-1.7,7.6-6.8C162.6,13.3,160.2,11.5,155.6,9.7z"></path>
	<polygon points="47.3,22.8 65.8,22.8 67.9,16.2 61.2,21.3 54.8,21.3 54.8,3.7 57.9,1.1 47.3,1.1 50.9,3.7 50.9,20
		"></polygon>
	<path d="M10.6,2.4c3,0,5.7,2.1,6.8,7.4l2.5-8.7l-2.8,1.4c-1.7-1.2-3.8-1.7-5.6-1.7C4.6,0.7,0,5.9,0,12.4,c0,6.3,4.2,10.8,10.5,10.8c5.5,0,8.6-4.5,8.6-8.4c-1.1,2.3-3.3,4.7-7.4,4.7c-4.5,0-7.9-3.4-7.9-8.6C3.8,5.1,7.1,2.4,10.6,2.4z"></path>
</svg>